<svg width="980" height="979" viewBox="0 0 980 979" fill="none" xmlns="http://www.w3.org/2000/svg">
<circle cx="489.824" cy="489.571" r="489.429" fill="url(#paint0_radial)"/>
<path d="M493.909 457.523C509.96 430.039 510.11 400.248 494.244 390.982C478.377 381.715 452.503 396.483 436.452 423.967C420.401 451.451 420.252 481.242 436.118 490.509C451.984 499.775 477.859 485.007 493.909 457.523Z" fill="#FFAF70"/>
<path d="M568.59 717.63L502.16 604.48L397.06 816.67L336 851.92L479.73 557.87L464.46 527.62L431.47 458.32L483.95 428.02L502.17 459.31L606.3 637.48L662.03 605.3V663.69L568.59 717.63Z" fill="#FFAF70"/>
<path fill-rule="evenodd" clip-rule="evenodd" d="M354.2 375.22C326.24 424.36 309 479.47 309 529.28C309 580.03 326.9 615.62 355.8 632.07L374.79 599.18C350.74 585.53 335.85 555.96 335.85 513.77C335.85 472.52 350.08 426.9 373.19 386.18L354.2 375.22ZM560.87 276.89L579.85 244C608.29 260.65 625.86 296.05 625.86 346.33C625.86 397.56 607.62 454.4 578.24 504.57L559.25 493.61C583.78 451.85 599.01 404.5 599.01 361.84C599.01 320.12 584.45 290.73 560.87 276.89ZM391.8 396.93C373.46 429.4 362.17 465.73 362.17 498.58C362.17 532.38 374.12 556.06 393.4 566.95L411.63 535.38C397.01 527.18 387.95 509.27 387.95 483.7C387.95 459.06 396.36 431.84 410.04 407.46L391.8 396.93ZM524.03 340.69L542.26 309.12C561.08 320.21 572.7 343.7 572.7 377.03C572.7 411.3 560.41 449.36 540.65 482.87L522.42 472.34C537.52 446.92 546.92 417.97 546.92 391.91C546.92 366.8 538.18 349.09 524.03 340.69Z" fill="#FFAF70"/>
<path d="M354 375.5L393.5 397.5L371 443L351 568.5L329 587.5L332 481.5L354 375.5Z" fill="#FFAF70"/>
<path d="M371 605L413.5 621.5L395 654.5L355.5 632L371 605Z" fill="#FFAF70"/>
<path d="M409.5 407.5L430.828 418.953L419.5 505L432 588.5L393.5 567L380.5 464.5L409.5 407.5Z" fill="#FFAF70"/>
<path d="M437.437 491.125L493.577 390.698L533.375 413.063L476.5 513.25L437.437 491.125Z" fill="#FFAF70"/>
<path d="M480 558.25L518.5 580.5L375 873.914L336.062 851.812L480 558.25Z" fill="#FFAF70"/>
<path d="M568.438 696.781H598.438L607.562 739.656L568.438 717.906V696.781Z" fill="#FFAF70"/>
<path d="M662.016 605.305L701.016 627.289L674.125 664.625H633.625L662.016 605.305Z" fill="#FFAF70"/>
<path d="M542.266 309.156L581.297 331.156L563.035 362.688L524.25 340.875L542.266 309.156Z" fill="#FFAF70"/>
<path d="M568.375 365.75H588.875L592 431.5L581 468.625L561.43 494.336L540.211 482.086L568.375 365.75Z" fill="#FFAF70"/>
<path d="M579.859 244.016L618.852 266.016L600.757 297.738L561.972 275.926L579.859 244.016Z" fill="#FFAF70"/>
<path d="M615.282 317.207H640.018L643.789 420.646L630.516 479.051L601.188 517.188L578.312 504.562L615.282 317.207Z" fill="#FFAF70"/>
<path d="M532.909 479.523C548.96 452.039 549.11 422.248 533.244 412.982C517.377 403.715 491.503 418.483 475.452 445.967C459.401 473.451 459.252 503.242 475.118 512.509C490.984 521.775 516.859 507.007 532.909 479.523Z" fill="#F57E20"/>
<path d="M607.59 739.63L541.16 626.48L436.06 838.67L375 873.92L518.73 579.87L503.46 549.62L470.47 480.32L522.95 450.02L541.17 481.31L645.3 659.48L701.03 627.3V685.69L607.59 739.63Z" fill="#F57E20"/>
<path fill-rule="evenodd" clip-rule="evenodd" d="M393.2 397.22C365.24 446.36 348 501.47 348 551.28C348 602.03 365.9 637.62 394.8 654.07L413.79 621.18C389.74 607.53 374.85 577.96 374.85 535.77C374.85 494.52 389.08 448.9 412.19 408.18L393.2 397.22ZM599.87 298.89L618.85 266C647.29 282.65 664.86 318.05 664.86 368.33C664.86 419.56 646.62 476.4 617.24 526.57L598.25 515.61C622.78 473.85 638.01 426.5 638.01 383.84C638.01 342.12 623.45 312.73 599.87 298.89ZM430.8 418.93C412.46 451.4 401.17 487.73 401.17 520.58C401.17 554.38 413.12 578.06 432.4 588.95L450.63 557.38C436.01 549.18 426.95 531.27 426.95 505.7C426.95 481.06 435.36 453.84 449.04 429.46L430.8 418.93ZM563.03 362.69L581.26 331.12C600.08 342.21 611.7 365.7 611.7 399.03C611.7 433.3 599.41 471.36 579.65 504.87L561.42 494.34C576.52 468.92 585.92 439.97 585.92 413.91C585.92 388.8 577.18 371.09 563.03 362.69Z" fill="#F57E20"/>
<path d="M440.163 161.717L399.391 180.13L440.163 198.105H524.337L440.163 161.717Z" fill="#FE9494"/>
<path d="M524.336 161.717H440.163L524.336 198.105L565.985 180.13L524.336 161.717Z" fill="#FFC7C8"/>
<path d="M483.127 359L603.688 226.602L540.119 248.522L483.127 359Z" fill="url(#paint1_linear)"/>
<path d="M361.25 226.602L483.126 359L425.257 248.522L361.25 226.602Z" fill="url(#paint2_linear)"/>
<path d="M425.257 248.521H540.119L483.127 358.999L425.257 248.521Z" fill="url(#paint3_linear)"/>
<path d="M603.688 226.601L565.985 180.13L524.337 198.105L540.119 248.522L603.688 226.601Z" fill="#CC0001"/>
<path d="M524.337 198.105H440.163L425.257 248.522H540.119L524.337 198.105Z" fill="#900000"/>
<path d="M399.391 180.13L361.25 226.601L425.257 248.522L440.163 198.105L399.391 180.13Z" fill="#FB191D"/>
<defs>
<radialGradient id="paint0_radial" cx="0" cy="0" r="1" gradientUnits="userSpaceOnUse" gradientTransform="translate(489.824 469) rotate(88.0684) scale(450.256)">
<stop offset="0.520833" stop-color="white"/>
<stop offset="1" stop-color="#FFEDE2"/>
</radialGradient>
<linearGradient id="paint1_linear" x1="543.407" y1="226.602" x2="543.407" y2="359" gradientUnits="userSpaceOnUse">
<stop stop-color="#7C0000"/>
<stop offset="1" stop-color="#FC7E0F"/>
</linearGradient>
<linearGradient id="paint2_linear" x1="422.188" y1="226.602" x2="422.188" y2="359" gradientUnits="userSpaceOnUse">
<stop stop-color="#FF6D6E"/>
<stop offset="1" stop-color="#FC7E0F"/>
</linearGradient>
<linearGradient id="paint3_linear" x1="482.688" y1="248.521" x2="482.688" y2="358.999" gradientUnits="userSpaceOnUse">
<stop stop-color="#CC0001"/>
<stop offset="1" stop-color="#FC7E0F"/>
</linearGradient>
</defs>
</svg>
